<svg xmlns="http://www.w3.org/2000/svg" xmlns:xlink="http://www.w3.org/1999/xlink" width="500" zoomAndPan="magnify" viewBox="0 0 375 374.999991" height="500" preserveAspectRatio="xMidYMid meet" version="1.0"><defs><g/><clipPath id="70c68b16c0"><path d="M 154 165 L 288 165 L 288 185.84375 L 154 185.84375 Z M 154 165 " clip-rule="nonzero"/></clipPath></defs><rect x="-37.5" width="450" fill="#ffffff" y="-37.499999" height="449.999989" fill-opacity="1"/><rect x="-37.5" width="450" fill="#000000" y="-37.499999" height="449.999989" fill-opacity="1"/><path fill="#ffbd59" d="M 89.847656 167.472656 C 92.136719 167.058594 95.050781 166.433594 98.273438 165.707031 L 84.746094 165.808594 L 108.160156 163.417969 L 110.136719 163 L 96.816406 163.105469 L 122 160.292969 L 123.457031 159.980469 L 110.242188 160.085938 L 132.71875 158.109375 C 133.238281 158.003906 133.65625 157.902344 134.175781 157.796875 L 121.480469 157.589844 L 139.484375 156.234375 L 132.613281 155.613281 L 154.15625 154.675781 C 182.042969 151.34375 212.011719 152.488281 232.097656 168.203125 C 229.289062 166.851562 226.582031 165.496094 223.773438 164.457031 L 200.460938 164.664062 L 220.753906 163.3125 L 195.570312 162.480469 L 213.886719 161.125 L 186.207031 160.605469 L 205.355469 159.148438 C 205.042969 159.046875 204.730469 159.046875 204.417969 158.941406 L 179.339844 158.734375 L 194.84375 157.589844 C 179.339844 156.132812 163.519531 157.691406 147.601562 160.816406 C 149.578125 166.121094 154.675781 169.765625 163.207031 171.636719 C 138.441406 173.09375 117.421875 164.457031 89.847656 167.472656 Z M 89.847656 167.472656 " fill-opacity="1" fill-rule="evenodd"/><g clip-path="url(#70c68b16c0)"><path fill="#ffbd59" d="M 254.886719 176.421875 L 244.585938 178.191406 L 258.425781 178.089844 C 259.257812 178.609375 259.984375 179.128906 260.714844 179.648438 L 239.796875 182.25 L 263.003906 182.042969 C 263.523438 182.667969 263.835938 183.292969 264.253906 184.019531 C 263.730469 180.378906 263.210938 179.648438 261.652344 177.878906 C 270.183594 179.128906 278.714844 181.9375 287.25 185.996094 C 262.585938 160.085938 195.882812 176.007812 155.507812 165.707031 C 157.171875 168.203125 161.960938 170.386719 168.722656 172.261719 L 154.882812 173.199219 L 172.46875 173.199219 C 173.613281 173.511719 174.863281 173.71875 176.113281 174.03125 L 165.289062 175.277344 L 183.085938 175.382812 C 183.605469 175.488281 184.230469 175.589844 184.75 175.695312 L 174.863281 177.152344 L 192.554688 176.945312 C 193.179688 177.046875 193.90625 177.152344 194.636719 177.257812 L 184.230469 178.503906 L 202.542969 178.296875 C 212.011719 179.546875 222.003906 180.585938 231.578125 181.417969 C 234.699219 177.464844 240.527344 174.757812 247.1875 174.757812 C 249.996094 175.175781 252.597656 175.695312 254.886719 176.421875 Z M 254.886719 176.421875 " fill-opacity="1" fill-rule="evenodd"/></g><path fill="#ffbd59" d="M 112.949219 174.34375 L 91.199219 175.800781 L 110.65625 176.113281 C 108.472656 178.089844 107.121094 180.585938 106.808594 183.292969 C 109.722656 178.402344 116.695312 174.96875 124.808594 174.96875 C 132.925781 174.96875 139.898438 178.402344 142.8125 183.292969 C 141.980469 176.421875 134.28125 171.117188 124.808594 171.117188 C 122.9375 171.117188 121.0625 171.324219 119.296875 171.742188 L 100.875 172.988281 L 113.988281 173.71875 C 113.570312 173.925781 113.257812 174.132812 112.949219 174.34375 Z M 112.949219 174.34375 " fill-opacity="1" fill-rule="evenodd"/><g fill="#ffffff" fill-opacity="1"><g transform="translate(100.518706, 219.25147)"><g><path d="M 2.957031 0 L 20.007812 0 C 20.179688 0 20.296875 -0.117188 20.296875 -0.289062 L 20.296875 -2.609375 C 20.296875 -2.785156 20.179688 -2.898438 20.007812 -2.898438 L 3.480469 -2.898438 C 3.160156 -2.898438 2.898438 -3.160156 2.898438 -3.480469 L 2.898438 -11.019531 C 2.898438 -11.335938 3.160156 -11.597656 3.480469 -11.597656 L 20.007812 -11.597656 C 20.179688 -11.597656 20.296875 -11.714844 20.296875 -11.886719 L 20.296875 -14.207031 C 20.296875 -14.382812 20.179688 -14.496094 20.007812 -14.496094 L 2.957031 -14.496094 C 1.246094 -14.496094 0 -13.25 0 -11.539062 L 0 -2.957031 C 0 -1.246094 1.246094 0 2.957031 0 Z M 2.957031 0 "/></g></g></g><g fill="#ffffff" fill-opacity="1"><g transform="translate(126.612447, 219.25147)"><g><path d="M 0.289062 0 L 2.609375 0 C 2.785156 0 2.898438 -0.117188 2.898438 -0.289062 L 2.898438 -5.800781 L 17.398438 -5.800781 L 17.398438 -0.289062 C 17.398438 -0.117188 17.511719 0 17.6875 0 L 20.007812 0 C 20.179688 0 20.296875 -0.117188 20.296875 -0.289062 L 20.296875 -11.539062 C 20.296875 -13.25 19.050781 -14.496094 17.339844 -14.496094 L 2.957031 -14.496094 C 1.246094 -14.496094 0 -13.25 0 -11.539062 L 0 -0.289062 C 0 -0.117188 0.117188 0 0.289062 0 Z M 2.898438 -8.699219 L 2.898438 -11.019531 C 2.898438 -11.335938 3.160156 -11.597656 3.480469 -11.597656 L 16.816406 -11.597656 C 17.136719 -11.597656 17.398438 -11.335938 17.398438 -11.019531 L 17.398438 -8.699219 Z M 2.898438 -8.699219 "/></g></g></g><g fill="#ffffff" fill-opacity="1"><g transform="translate(152.706187, 219.25147)"><g><path d="M 0.289062 0 L 2.609375 0 C 2.785156 0 2.898438 -0.117188 2.898438 -0.289062 L 2.898438 -5.800781 L 13.859375 -5.800781 L 15.890625 0 L 19.078125 0 L 17.050781 -5.800781 L 17.339844 -5.800781 C 19.050781 -5.800781 20.296875 -7.046875 20.296875 -8.757812 L 20.296875 -11.539062 C 20.296875 -13.25 19.050781 -14.496094 17.339844 -14.496094 L 0.289062 -14.496094 C 0.117188 -14.496094 0 -14.382812 0 -14.207031 L 0 -0.289062 C 0 -0.117188 0.117188 0 0.289062 0 Z M 2.898438 -8.699219 L 2.898438 -11.597656 L 16.816406 -11.597656 C 17.136719 -11.597656 17.398438 -11.335938 17.398438 -11.019531 L 17.398438 -9.277344 C 17.398438 -8.960938 17.136719 -8.699219 16.816406 -8.699219 Z M 2.898438 -8.699219 "/></g></g></g><g fill="#ffffff" fill-opacity="1"><g transform="translate(178.799927, 219.25147)"><g/></g></g><g fill="#ffffff" fill-opacity="1"><g transform="translate(190.397587, 219.25147)"><g><path d="M 0.289062 0 L 2.609375 0 C 2.785156 0 2.898438 -0.117188 2.898438 -0.289062 L 2.898438 -5.800781 L 17.398438 -5.800781 L 17.398438 -0.289062 C 17.398438 -0.117188 17.511719 0 17.6875 0 L 20.007812 0 C 20.179688 0 20.296875 -0.117188 20.296875 -0.289062 L 20.296875 -14.207031 C 20.296875 -14.382812 20.179688 -14.496094 20.007812 -14.496094 L 17.6875 -14.496094 C 17.511719 -14.496094 17.398438 -14.382812 17.398438 -14.207031 L 17.398438 -8.699219 L 2.898438 -8.699219 L 2.898438 -14.207031 C 2.898438 -14.382812 2.785156 -14.496094 2.609375 -14.496094 L 0.289062 -14.496094 C 0.117188 -14.496094 0 -14.382812 0 -14.207031 L 0 -0.289062 C 0 -0.117188 0.117188 0 0.289062 0 Z M 0.289062 0 "/></g></g></g><g fill="#ffffff" fill-opacity="1"><g transform="translate(216.491327, 219.25147)"><g><path d="M 0.289062 0 L 2.609375 0 C 2.785156 0 2.898438 -0.117188 2.898438 -0.289062 L 2.898438 -14.207031 C 2.898438 -14.382812 2.785156 -14.496094 2.609375 -14.496094 L 0.289062 -14.496094 C 0.117188 -14.496094 0 -14.382812 0 -14.207031 L 0 -0.289062 C 0 -0.117188 0.117188 0 0.289062 0 Z M 0.289062 0 "/></g></g></g><g fill="#ffffff" fill-opacity="1"><g transform="translate(225.189763, 219.25147)"><g><path d="M 0.289062 0 L 2.609375 0 C 2.785156 0 2.898438 -0.117188 2.898438 -0.289062 L 2.898438 -5.800781 L 13.859375 -5.800781 L 15.890625 0 L 19.078125 0 L 17.050781 -5.800781 L 17.339844 -5.800781 C 19.050781 -5.800781 20.296875 -7.046875 20.296875 -8.757812 L 20.296875 -11.539062 C 20.296875 -13.25 19.050781 -14.496094 17.339844 -14.496094 L 0.289062 -14.496094 C 0.117188 -14.496094 0 -14.382812 0 -14.207031 L 0 -0.289062 C 0 -0.117188 0.117188 0 0.289062 0 Z M 2.898438 -8.699219 L 2.898438 -11.597656 L 16.816406 -11.597656 C 17.136719 -11.597656 17.398438 -11.335938 17.398438 -11.019531 L 17.398438 -9.277344 C 17.398438 -8.960938 17.136719 -8.699219 16.816406 -8.699219 Z M 2.898438 -8.699219 "/></g></g></g><g fill="#ffffff" fill-opacity="1"><g transform="translate(251.283503, 219.25147)"><g><path d="M 2.957031 0 L 20.007812 0 C 20.179688 0 20.296875 -0.117188 20.296875 -0.289062 L 20.296875 -2.609375 C 20.296875 -2.785156 20.179688 -2.898438 20.007812 -2.898438 L 3.480469 -2.898438 C 3.160156 -2.898438 2.898438 -3.160156 2.898438 -3.480469 L 2.898438 -5.800781 L 18.613281 -5.800781 C 18.847656 -5.800781 18.960938 -5.914062 18.960938 -6.089844 L 18.960938 -8.410156 C 18.960938 -8.582031 18.847656 -8.699219 18.613281 -8.699219 L 2.898438 -8.699219 L 2.898438 -11.019531 C 2.898438 -11.335938 3.160156 -11.597656 3.480469 -11.597656 L 20.007812 -11.597656 C 20.179688 -11.597656 20.296875 -11.714844 20.296875 -11.886719 L 20.296875 -14.207031 C 20.296875 -14.382812 20.179688 -14.496094 20.007812 -14.496094 L 2.957031 -14.496094 C 1.246094 -14.496094 0 -13.25 0 -11.539062 L 0 -2.957031 C 0 -1.246094 1.246094 0 2.957031 0 Z M 2.957031 0 "/></g></g></g><g fill="#ffffff" fill-opacity="1"><g transform="translate(152.027969, 235.601469)"><g><path d="M 4.546875 -0.78125 L 1.75 -0.78125 L 1.75 -7.4375 L 0.84375 -7.4375 L 0.84375 0 L 4.546875 0 Z M 4.546875 -0.78125 "/></g></g></g><g fill="#ffffff" fill-opacity="1"><g transform="translate(163.833481, 235.601469)"><g><path d="M 4.296875 0.078125 C 5.054688 0.078125 5.519531 -0.164062 5.6875 -0.65625 C 5.726562 -0.820312 5.75 -1.015625 5.75 -1.234375 L 5.75 -7.4375 L 4.828125 -7.4375 L 4.828125 -0.84375 C 4.816406 -0.78125 4.78125 -0.742188 4.71875 -0.734375 L 1.765625 -0.734375 C 1.703125 -0.753906 1.664062 -0.789062 1.65625 -0.84375 L 1.65625 -7.4375 L 0.734375 -7.4375 L 0.734375 -1.234375 C 0.734375 -0.546875 1 -0.128906 1.53125 0.015625 C 1.71875 0.0546875 1.9375 0.078125 2.1875 0.078125 Z M 4.296875 0.078125 "/></g></g></g><g fill="#ffffff" fill-opacity="1"><g transform="translate(177.513994, 235.601469)"><g><path d="M 5.140625 -0.734375 L 1.5625 -0.734375 C 1.46875 -0.734375 1.441406 -0.78125 1.484375 -0.875 C 1.484375 -0.882812 1.488281 -0.894531 1.5 -0.90625 L 5.234375 -6.5625 C 5.210938 -7.144531 4.914062 -7.441406 4.34375 -7.453125 L 0.671875 -7.4375 L 0.671875 -6.71875 L 4.125 -6.71875 C 4.207031 -6.71875 4.238281 -6.675781 4.21875 -6.59375 C 4.207031 -6.582031 4.203125 -6.570312 4.203125 -6.5625 L 0.40625 -0.796875 C 0.425781 -0.273438 0.71875 -0.0078125 1.28125 0 L 5.140625 0 Z M 5.140625 -0.734375 "/></g></g></g><g fill="#ffffff" fill-opacity="1"><g transform="translate(190.303882, 235.601469)"><g><path d="M 4.984375 0 L 4.984375 -0.78125 L 1.75 -0.78125 L 1.75 -3.40625 L 4.71875 -3.40625 L 4.71875 -4.171875 L 1.75 -4.171875 L 1.75 -6.65625 L 4.921875 -6.65625 L 4.921875 -7.4375 L 0.84375 -7.4375 L 0.84375 0 Z M 4.984375 0 "/></g></g></g><g fill="#ffffff" fill-opacity="1"><g transform="translate(202.882832, 235.601469)"><g><path d="M 1.765625 0 L 1.765625 -3.0625 L 3.65625 -3.0625 C 3.75 -3.050781 3.8125 -3.007812 3.84375 -2.9375 L 4.859375 0 L 5.765625 0 L 4.90625 -2.4375 C 4.789062 -2.769531 4.660156 -3 4.515625 -3.125 C 5.191406 -3.289062 5.535156 -3.753906 5.546875 -4.515625 L 5.546875 -6.0625 C 5.523438 -7.019531 5.003906 -7.492188 3.984375 -7.484375 L 0.875 -7.4375 L 0.875 0 Z M 4.46875 -6.703125 C 4.550781 -6.691406 4.597656 -6.640625 4.609375 -6.546875 L 4.609375 -3.96875 C 4.585938 -3.875 4.539062 -3.828125 4.46875 -3.828125 L 1.765625 -3.828125 L 1.765625 -6.703125 Z M 4.46875 -6.703125 "/></g></g></g><g fill="#ffffff" fill-opacity="1"><g transform="translate(216.282095, 235.601469)"><g><path d="M 5.234375 0 L 5.859375 0 L 5.859375 -7.4375 L 5.078125 -7.4375 L 5.078125 -1.71875 L 1.421875 -7.4375 L 0.796875 -7.4375 L 0.796875 0 L 1.59375 0 L 1.59375 -5.734375 Z M 5.234375 0 "/></g></g></g></svg>