<svg xmlns="http://www.w3.org/2000/svg" xmlns:xlink="http://www.w3.org/1999/xlink" width="300" zoomAndPan="magnify" viewBox="0 0 224.87999 74.999997" height="100" preserveAspectRatio="xMidYMid meet" version="1.0"><defs><clipPath id="1517c2f98b"><path d="M 0 0.0195312 L 224.761719 0.0195312 L 224.761719 74.980469 L 0 74.980469 Z M 0 0.0195312 " clip-rule="nonzero"/></clipPath><clipPath id="b65c3339eb"><path d="M 95 16.070312 L 182 16.070312 L 182 29.695312 L 95 29.695312 Z M 95 16.070312 " clip-rule="nonzero"/></clipPath></defs><g clip-path="url(#1517c2f98b)"><rect x="-22.487999" width="269.855988" fill="#ffffff" y="-7.5" height="89.999996" fill-opacity="1"/><rect x="-22.487999" width="269.855988" fill="#000000" y="-7.5" height="89.999996" fill-opacity="1"/></g><path fill="#ffbd59" d="M 52.910156 17.6875 C 54.40625 17.417969 56.3125 17.007812 58.417969 16.535156 L 49.574219 16.601562 L 64.878906 15.039062 L 66.171875 14.765625 L 57.464844 14.832031 L 73.925781 12.996094 L 74.878906 12.789062 L 66.242188 12.859375 L 80.933594 11.566406 C 81.273438 11.5 81.546875 11.433594 81.886719 11.363281 L 73.585938 11.226562 L 85.355469 10.34375 L 80.863281 9.9375 L 94.945312 9.324219 C 113.175781 7.144531 132.761719 7.894531 145.890625 18.164062 C 144.054688 17.28125 142.285156 16.394531 140.453125 15.71875 L 125.214844 15.851562 L 138.476562 14.96875 L 122.015625 14.425781 L 133.988281 13.539062 L 115.894531 13.199219 L 128.414062 12.246094 C 128.207031 12.179688 128.003906 12.179688 127.800781 12.113281 L 111.40625 11.976562 L 121.542969 11.226562 C 111.40625 10.277344 101.066406 11.292969 90.660156 13.335938 C 91.953125 16.804688 95.285156 19.1875 100.863281 20.410156 C 84.675781 21.363281 70.933594 15.71875 52.910156 17.6875 Z M 52.910156 17.6875 " fill-opacity="1" fill-rule="evenodd"/><g clip-path="url(#b65c3339eb)"><path fill="#ffbd59" d="M 160.789062 23.539062 L 154.054688 24.695312 L 163.101562 24.628906 C 163.644531 24.96875 164.121094 25.308594 164.597656 25.648438 L 150.925781 27.347656 L 166.09375 27.210938 C 166.433594 27.621094 166.636719 28.027344 166.910156 28.503906 C 166.570312 26.125 166.230469 25.648438 165.210938 24.492188 C 170.789062 25.308594 176.363281 27.144531 181.941406 29.796875 C 165.820312 12.859375 122.21875 23.265625 95.828125 16.535156 C 96.917969 18.164062 100.046875 19.59375 104.46875 20.820312 L 95.421875 21.429688 L 106.914062 21.429688 C 107.664062 21.636719 108.480469 21.769531 109.296875 21.976562 L 102.222656 22.789062 L 113.855469 22.859375 C 114.195312 22.925781 114.605469 22.992188 114.945312 23.0625 L 108.480469 24.015625 L 120.046875 23.878906 C 120.453125 23.945312 120.929688 24.015625 121.40625 24.085938 L 114.605469 24.898438 L 126.574219 24.761719 C 132.761719 25.582031 139.292969 26.257812 145.554688 26.804688 C 147.59375 24.21875 151.402344 22.449219 155.757812 22.449219 C 157.589844 22.722656 159.292969 23.0625 160.789062 23.539062 Z M 160.789062 23.539062 " fill-opacity="1" fill-rule="evenodd"/></g><path fill="#ffbd59" d="M 68.011719 22.179688 L 53.792969 23.132812 L 66.511719 23.335938 C 65.085938 24.628906 64.203125 26.257812 63.996094 28.027344 C 65.902344 24.832031 70.460938 22.589844 75.761719 22.589844 C 81.070312 22.589844 85.625 24.832031 87.53125 28.027344 C 86.988281 23.539062 81.953125 20.070312 75.761719 20.070312 C 74.539062 20.070312 73.3125 20.207031 72.160156 20.480469 L 60.117188 21.292969 L 68.691406 21.769531 C 68.417969 21.90625 68.210938 22.042969 68.011719 22.179688 Z M 68.011719 22.179688 " fill-opacity="1" fill-rule="evenodd"/><path fill="#ffffff" d="M 61.820312 51.535156 L 72.964844 51.535156 C 73.078125 51.535156 73.152344 51.457031 73.152344 51.34375 L 73.152344 49.828125 C 73.152344 49.710938 73.078125 49.636719 72.964844 49.636719 L 62.160156 49.636719 C 61.953125 49.636719 61.78125 49.46875 61.78125 49.257812 L 61.78125 44.332031 C 61.78125 44.125 61.953125 43.953125 62.160156 43.953125 L 72.964844 43.953125 C 73.078125 43.953125 73.152344 43.875 73.152344 43.761719 L 73.152344 42.246094 C 73.152344 42.132812 73.078125 42.058594 72.964844 42.058594 L 61.820312 42.058594 C 60.699219 42.058594 59.886719 42.871094 59.886719 43.992188 L 59.886719 49.601562 C 59.886719 50.71875 60.699219 51.535156 61.820312 51.535156 Z M 61.820312 51.535156 " fill-opacity="1" fill-rule="nonzero"/><path fill="#ffffff" d="M 77.128906 51.535156 L 78.648438 51.535156 C 78.761719 51.535156 78.835938 51.457031 78.835938 51.34375 L 78.835938 47.742188 L 88.3125 47.742188 L 88.3125 51.34375 C 88.3125 51.457031 88.386719 51.535156 88.503906 51.535156 L 90.019531 51.535156 C 90.132812 51.535156 90.207031 51.457031 90.207031 51.34375 L 90.207031 43.992188 C 90.207031 42.871094 89.394531 42.058594 88.277344 42.058594 L 78.875 42.058594 C 77.757812 42.058594 76.941406 42.871094 76.941406 43.992188 L 76.941406 51.34375 C 76.941406 51.457031 77.019531 51.535156 77.128906 51.535156 Z M 78.835938 45.847656 L 78.835938 44.332031 C 78.835938 44.125 79.007812 43.953125 79.214844 43.953125 L 87.933594 43.953125 C 88.144531 43.953125 88.3125 44.125 88.3125 44.332031 L 88.3125 45.847656 Z M 78.835938 45.847656 " fill-opacity="1" fill-rule="nonzero"/><path fill="#ffffff" d="M 94.1875 51.535156 L 95.703125 51.535156 C 95.820312 51.535156 95.890625 51.457031 95.890625 51.34375 L 95.890625 47.742188 L 103.058594 47.742188 L 104.386719 51.535156 L 106.46875 51.535156 L 105.144531 47.742188 L 105.332031 47.742188 C 106.449219 47.742188 107.265625 46.925781 107.265625 45.808594 L 107.265625 43.992188 C 107.265625 42.871094 106.449219 42.058594 105.332031 42.058594 L 94.1875 42.058594 C 94.074219 42.058594 93.996094 42.132812 93.996094 42.246094 L 93.996094 51.34375 C 93.996094 51.457031 94.074219 51.535156 94.1875 51.535156 Z M 95.890625 45.847656 L 95.890625 43.953125 L 104.988281 43.953125 C 105.199219 43.953125 105.371094 44.125 105.371094 44.332031 L 105.371094 45.46875 C 105.371094 45.675781 105.199219 45.847656 104.988281 45.847656 Z M 95.890625 45.847656 " fill-opacity="1" fill-rule="nonzero"/><path fill="#ffffff" d="M 118.824219 51.535156 L 120.339844 51.535156 C 120.457031 51.535156 120.53125 51.457031 120.53125 51.34375 L 120.53125 47.742188 L 130.007812 47.742188 L 130.007812 51.34375 C 130.007812 51.457031 130.082031 51.535156 130.195312 51.535156 L 131.714844 51.535156 C 131.824219 51.535156 131.902344 51.457031 131.902344 51.34375 L 131.902344 42.246094 C 131.902344 42.132812 131.824219 42.058594 131.714844 42.058594 L 130.195312 42.058594 C 130.082031 42.058594 130.007812 42.132812 130.007812 42.246094 L 130.007812 45.847656 L 120.53125 45.847656 L 120.53125 42.246094 C 120.53125 42.132812 120.457031 42.058594 120.339844 42.058594 L 118.824219 42.058594 C 118.710938 42.058594 118.636719 42.132812 118.636719 42.246094 L 118.636719 51.34375 C 118.636719 51.457031 118.710938 51.535156 118.824219 51.535156 Z M 118.824219 51.535156 " fill-opacity="1" fill-rule="nonzero"/><path fill="#ffffff" d="M 135.878906 51.535156 L 137.398438 51.535156 C 137.511719 51.535156 137.585938 51.457031 137.585938 51.34375 L 137.585938 42.246094 C 137.585938 42.132812 137.511719 42.058594 137.398438 42.058594 L 135.878906 42.058594 C 135.769531 42.058594 135.691406 42.132812 135.691406 42.246094 L 135.691406 51.34375 C 135.691406 51.457031 135.769531 51.535156 135.878906 51.535156 Z M 135.878906 51.535156 " fill-opacity="1" fill-rule="nonzero"/><path fill="#ffffff" d="M 141.566406 51.535156 L 143.082031 51.535156 C 143.199219 51.535156 143.273438 51.457031 143.273438 51.34375 L 143.273438 47.742188 L 150.4375 47.742188 L 151.765625 51.535156 L 153.847656 51.535156 L 152.523438 47.742188 L 152.710938 47.742188 C 153.828125 47.742188 154.644531 46.925781 154.644531 45.808594 L 154.644531 43.992188 C 154.644531 42.871094 153.828125 42.058594 152.710938 42.058594 L 141.566406 42.058594 C 141.453125 42.058594 141.378906 42.132812 141.378906 42.246094 L 141.378906 51.34375 C 141.378906 51.457031 141.453125 51.535156 141.566406 51.535156 Z M 143.273438 45.847656 L 143.273438 43.953125 L 152.371094 43.953125 C 152.578125 43.953125 152.75 44.125 152.75 44.332031 L 152.75 45.46875 C 152.75 45.675781 152.578125 45.847656 152.371094 45.847656 Z M 143.273438 45.847656 " fill-opacity="1" fill-rule="nonzero"/><path fill="#ffffff" d="M 160.367188 51.535156 L 171.511719 51.535156 C 171.625 51.535156 171.699219 51.457031 171.699219 51.34375 L 171.699219 49.828125 C 171.699219 49.710938 171.625 49.636719 171.511719 49.636719 L 160.707031 49.636719 C 160.5 49.636719 160.328125 49.46875 160.328125 49.257812 L 160.328125 47.742188 L 170.601562 47.742188 C 170.753906 47.742188 170.828125 47.667969 170.828125 47.550781 L 170.828125 46.035156 C 170.828125 45.921875 170.753906 45.847656 170.601562 45.847656 L 160.328125 45.847656 L 160.328125 44.332031 C 160.328125 44.125 160.5 43.953125 160.707031 43.953125 L 171.511719 43.953125 C 171.625 43.953125 171.699219 43.875 171.699219 43.761719 L 171.699219 42.246094 C 171.699219 42.132812 171.625 42.058594 171.511719 42.058594 L 160.367188 42.058594 C 159.25 42.058594 158.433594 42.871094 158.433594 43.992188 L 158.433594 49.601562 C 158.433594 50.71875 159.25 51.535156 160.367188 51.535156 Z M 160.367188 51.535156 " fill-opacity="1" fill-rule="nonzero"/><path fill="#ffffff" d="M 96.527344 61.710938 L 94.699219 61.710938 L 94.699219 57.359375 L 94.105469 57.359375 L 94.105469 62.21875 L 96.527344 62.21875 Z M 96.527344 61.710938 " fill-opacity="1" fill-rule="nonzero"/><path fill="#ffffff" d="M 104.078125 62.269531 C 104.574219 62.269531 104.878906 62.113281 104.988281 61.792969 C 105.015625 61.683594 105.03125 61.554688 105.03125 61.414062 L 105.03125 57.359375 L 104.425781 57.359375 L 104.425781 61.667969 C 104.417969 61.710938 104.394531 61.734375 104.355469 61.742188 L 102.425781 61.742188 C 102.382812 61.726562 102.359375 61.703125 102.355469 61.667969 L 102.355469 57.359375 L 101.75 57.359375 L 101.75 61.414062 C 101.75 61.863281 101.925781 62.136719 102.273438 62.230469 C 102.394531 62.257812 102.539062 62.269531 102.699219 62.269531 Z M 104.078125 62.269531 " fill-opacity="1" fill-rule="nonzero"/><path fill="#ffffff" d="M 113.574219 61.742188 L 111.234375 61.742188 C 111.171875 61.742188 111.15625 61.710938 111.183594 61.648438 C 111.183594 61.644531 111.1875 61.636719 111.195312 61.628906 L 113.636719 57.929688 C 113.621094 57.550781 113.425781 57.355469 113.054688 57.347656 L 110.652344 57.359375 L 110.652344 57.828125 L 112.910156 57.828125 C 112.964844 57.828125 112.984375 57.855469 112.972656 57.910156 C 112.964844 57.917969 112.960938 57.925781 112.960938 57.929688 L 110.480469 61.699219 C 110.492188 62.042969 110.683594 62.214844 111.050781 62.21875 L 113.574219 62.21875 Z M 113.574219 61.742188 " fill-opacity="1" fill-rule="nonzero"/><path fill="#ffffff" d="M 121.832031 62.21875 L 121.832031 61.710938 L 119.71875 61.710938 L 119.71875 59.992188 L 121.660156 59.992188 L 121.660156 59.492188 L 119.71875 59.492188 L 119.71875 57.871094 L 121.792969 57.871094 L 121.792969 57.359375 L 119.125 57.359375 L 119.125 62.21875 Z M 121.832031 62.21875 " fill-opacity="1" fill-rule="nonzero"/><path fill="#ffffff" d="M 127.949219 62.21875 L 127.949219 60.21875 L 129.1875 60.21875 C 129.246094 60.226562 129.289062 60.253906 129.308594 60.300781 L 129.972656 62.21875 L 130.566406 62.21875 L 130.003906 60.628906 C 129.925781 60.410156 129.84375 60.257812 129.746094 60.179688 C 130.191406 60.070312 130.414062 59.765625 130.421875 59.269531 L 130.421875 58.257812 C 130.40625 57.632812 130.066406 57.324219 129.402344 57.328125 L 127.367188 57.359375 L 127.367188 62.21875 Z M 129.71875 57.839844 C 129.769531 57.847656 129.800781 57.878906 129.808594 57.941406 L 129.808594 59.625 C 129.792969 59.6875 129.761719 59.71875 129.71875 59.71875 L 127.949219 59.71875 L 127.949219 57.839844 Z M 129.71875 57.839844 " fill-opacity="1" fill-rule="nonzero"/><path fill="#ffffff" d="M 138.976562 62.21875 L 139.382812 62.21875 L 139.382812 57.359375 L 138.875 57.359375 L 138.875 61.097656 L 136.484375 57.359375 L 136.074219 57.359375 L 136.074219 62.21875 L 136.597656 62.21875 L 136.597656 58.472656 Z M 138.976562 62.21875 " fill-opacity="1" fill-rule="nonzero"/></svg>